<svg width="176" height="56" viewBox="0 0 176 56" fill="none" xmlns="http://www.w3.org/2000/svg">
<path d="M59.7116 39H57.5881L63.7301 22.2727H65.821L71.9631 39H69.8395L64.8409 24.919H64.7102L59.7116 39ZM60.4957 32.4659H69.0554V34.2628H60.4957V32.4659ZM76.2347 31.4531V39H74.3072V26.4545H76.1694V28.4148H76.3327C76.6268 27.7777 77.0733 27.2659 77.6722 26.8793C78.2712 26.4872 79.0444 26.2912 79.9918 26.2912C80.8413 26.2912 81.5845 26.4654 82.2216 26.8139C82.8587 27.157 83.3542 27.6797 83.7081 28.3821C84.062 29.0791 84.239 29.9612 84.239 31.0284V39H82.3114V31.1591C82.3114 30.1735 82.0555 29.4058 81.5437 28.8558C81.0318 28.3004 80.3294 28.0227 79.4364 28.0227C78.8211 28.0227 78.2712 28.1561 77.7866 28.4229C77.3074 28.6897 76.929 29.0791 76.6513 29.5909C76.3736 30.1027 76.2347 30.7235 76.2347 31.4531ZM92.8252 43.9659C91.8941 43.9659 91.0937 43.8461 90.4239 43.6065C89.7542 43.3724 89.1961 43.062 88.7496 42.6754C88.3085 42.2943 87.9573 41.8859 87.6959 41.4503L89.2314 40.3722C89.4057 40.6009 89.6262 40.8622 89.893 41.1562C90.1598 41.4557 90.5247 41.7144 90.9875 41.9322C91.4558 42.1554 92.0683 42.267 92.8252 42.267C93.838 42.267 94.6738 42.022 95.3327 41.532C95.9915 41.0419 96.3209 40.2741 96.3209 39.2287V36.6804H96.1576C96.016 36.9091 95.8145 37.1922 95.5532 37.5298C95.2973 37.862 94.927 38.1587 94.4424 38.4201C93.9632 38.676 93.3153 38.804 92.4985 38.804C91.4857 38.804 90.5764 38.5644 89.7705 38.0852C88.9701 37.6061 88.3357 36.9091 87.8675 35.9943C87.4046 35.0795 87.1732 33.9687 87.1732 32.6619C87.1732 31.3769 87.3992 30.2579 87.8511 29.305C88.3031 28.3467 88.932 27.6062 89.7378 27.0835C90.5437 26.5553 91.4748 26.2912 92.5312 26.2912C93.3479 26.2912 93.9959 26.4273 94.4751 26.6996C94.9597 26.9664 95.3299 27.2713 95.5858 27.6143C95.8472 27.9519 96.0487 28.2296 96.1903 28.4474H96.3863V26.4545H98.2485V39.3594C98.2485 40.4375 98.0035 41.3142 97.5134 41.9893C97.0288 42.67 96.3754 43.1682 95.5532 43.484C94.7364 43.8053 93.8271 43.9659 92.8252 43.9659ZM92.7599 37.0724C93.5331 37.0724 94.1865 36.8955 94.7201 36.5415C95.2537 36.1876 95.6594 35.6785 95.9371 35.0142C96.2148 34.3499 96.3536 33.5549 96.3536 32.6293C96.3536 31.7254 96.2175 30.9277 95.9452 30.2362C95.673 29.5446 95.27 29.0028 94.7364 28.6108C94.2028 28.2187 93.5439 28.0227 92.7599 28.0227C91.9431 28.0227 91.2625 28.2296 90.718 28.6435C90.1789 29.0573 89.7732 29.6127 89.501 30.3097C89.2342 31.0066 89.1008 31.7798 89.1008 32.6293C89.1008 33.5005 89.2369 34.271 89.5091 34.9407C89.7868 35.605 90.1952 36.1277 90.7343 36.5089C91.2788 36.8846 91.954 37.0724 92.7599 37.0724ZM109.683 33.8707V26.4545H111.611V39H109.683V36.8764H109.552C109.258 37.5135 108.801 38.0553 108.18 38.5018C107.56 38.9428 106.775 39.1634 105.828 39.1634C105.044 39.1634 104.347 38.9918 103.737 38.6488C103.127 38.3003 102.648 37.7776 102.3 37.0806C101.951 36.3782 101.777 35.4934 101.777 34.4261V26.4545H103.704V34.2955C103.704 35.2102 103.96 35.9399 104.472 36.4844C104.989 37.0289 105.648 37.3011 106.449 37.3011C106.928 37.3011 107.415 37.1786 107.911 36.9336C108.412 36.6886 108.831 36.3129 109.169 35.8065C109.512 35.3001 109.683 34.6548 109.683 33.8707ZM117.069 22.2727V39H115.141V22.2727H117.069ZM124.291 39.294C123.496 39.294 122.774 39.1443 122.127 38.8448C121.479 38.5399 120.964 38.1016 120.583 37.5298C120.202 36.9527 120.011 36.2557 120.011 35.4389C120.011 34.7202 120.153 34.1375 120.436 33.6911C120.719 33.2391 121.097 32.8852 121.571 32.6293C122.045 32.3733 122.568 32.1828 123.139 32.0575C123.716 31.9268 124.296 31.8234 124.879 31.7472C125.641 31.6491 126.259 31.5756 126.733 31.5266C127.212 31.4722 127.561 31.3823 127.778 31.2571C128.002 31.1319 128.113 30.9141 128.113 30.6037V30.5384C128.113 29.7325 127.893 29.1063 127.452 28.6598C127.016 28.2133 126.355 27.9901 125.467 27.9901C124.547 27.9901 123.825 28.1915 123.303 28.5945C122.78 28.9974 122.412 29.4276 122.2 29.8849L120.37 29.2315C120.697 28.4692 121.133 27.8757 121.677 27.451C122.227 27.0208 122.826 26.7214 123.474 26.5526C124.128 26.3783 124.77 26.2912 125.402 26.2912C125.805 26.2912 126.267 26.3402 126.79 26.4382C127.318 26.5308 127.828 26.7241 128.318 27.0181C128.813 27.3121 129.224 27.7559 129.551 28.3494C129.878 28.9429 130.041 29.7379 130.041 30.7344V39H128.113V37.3011H128.015C127.885 37.5734 127.667 37.8647 127.362 38.1751C127.057 38.4854 126.651 38.7495 126.145 38.9673C125.639 39.1851 125.021 39.294 124.291 39.294ZM124.585 37.5625C125.347 37.5625 125.99 37.4128 126.513 37.1133C127.041 36.8138 127.438 36.4272 127.705 35.9535C127.977 35.4798 128.113 34.9815 128.113 34.4588V32.6946C128.032 32.7926 127.852 32.8825 127.574 32.9641C127.302 33.0404 126.986 33.1084 126.627 33.1683C126.273 33.2228 125.927 33.2718 125.59 33.3153C125.257 33.3535 124.988 33.3861 124.781 33.4134C124.28 33.4787 123.812 33.5849 123.376 33.7319C122.946 33.8735 122.598 34.0885 122.331 34.3771C122.069 34.6603 121.939 35.0469 121.939 35.5369C121.939 36.2067 122.186 36.7131 122.682 37.0561C123.183 37.3937 123.817 37.5625 124.585 37.5625ZM133.559 39V26.4545H135.421V28.3494H135.552C135.781 27.7287 136.195 27.225 136.794 26.8384C137.392 26.4518 138.068 26.2585 138.819 26.2585C138.961 26.2585 139.138 26.2612 139.35 26.2667C139.562 26.2721 139.723 26.2803 139.832 26.2912V28.2514C139.767 28.2351 139.617 28.2106 139.383 28.1779C139.154 28.1398 138.912 28.1207 138.656 28.1207C138.046 28.1207 137.501 28.2487 137.022 28.5046C136.548 28.7551 136.173 29.1036 135.895 29.5501C135.623 29.9911 135.487 30.4948 135.487 31.0611V39H133.559ZM154.973 22.2727H158.468V33.9361C158.468 35.0142 158.226 35.9508 157.741 36.7457C157.262 37.5407 156.595 38.1533 155.74 38.5835C154.885 39.0136 153.892 39.2287 152.759 39.2287C151.752 39.2287 150.837 39.0517 150.015 38.6978C149.198 38.3384 148.55 37.7939 148.071 37.0643C147.592 36.3292 147.355 35.4062 147.36 34.2955H150.881C150.891 34.7365 150.981 35.1149 151.15 35.4308C151.324 35.7411 151.561 35.9807 151.861 36.1495C152.166 36.3129 152.525 36.3945 152.939 36.3945C153.374 36.3945 153.742 36.302 154.041 36.1168C154.346 35.9263 154.578 35.6486 154.736 35.2837C154.894 34.9189 154.973 34.4697 154.973 33.9361V22.2727ZM170.467 27.0835C170.401 26.4246 170.121 25.9128 169.625 25.5479C169.13 25.1831 168.457 25.0007 167.608 25.0007C167.031 25.0007 166.543 25.0824 166.146 25.2457C165.748 25.4036 165.443 25.6242 165.231 25.9073C165.024 26.1905 164.921 26.5117 164.921 26.8711C164.91 27.1706 164.972 27.4319 165.109 27.6552C165.25 27.8784 165.443 28.0717 165.688 28.2351C165.934 28.393 166.217 28.5318 166.538 28.6516C166.859 28.766 167.202 28.864 167.567 28.9457L169.07 29.305C169.8 29.4684 170.469 29.6862 171.079 29.9585C171.689 30.2307 172.217 30.5656 172.664 30.9631C173.11 31.3606 173.456 31.8288 173.701 32.3679C173.951 32.907 174.079 33.525 174.085 34.2219C174.079 35.2456 173.818 36.1332 173.301 36.8846C172.789 37.6306 172.048 38.2105 171.079 38.6243C170.115 39.0327 168.953 39.2369 167.592 39.2369C166.241 39.2369 165.065 39.0299 164.063 38.6161C163.067 38.2023 162.288 37.5897 161.727 36.7784C161.172 35.9616 160.88 34.9516 160.853 33.7482H164.275C164.314 34.3091 164.474 34.7773 164.757 35.1531C165.046 35.5233 165.43 35.8037 165.909 35.9943C166.394 36.1795 166.941 36.272 167.551 36.272C168.15 36.272 168.67 36.1849 169.111 36.0107C169.557 35.8364 169.903 35.5941 170.148 35.2837C170.393 34.9734 170.516 34.6167 170.516 34.2138C170.516 33.8381 170.404 33.5223 170.181 33.2663C169.963 33.0104 169.642 32.7926 169.217 32.6129C168.798 32.4332 168.283 32.2699 167.673 32.1229L165.852 31.6655C164.442 31.3224 163.328 30.7861 162.511 30.0565C161.695 29.3268 161.289 28.344 161.294 27.108C161.289 26.0952 161.558 25.2103 162.103 24.4535C162.653 23.6966 163.407 23.1058 164.365 22.6811C165.324 22.2564 166.413 22.044 167.632 22.044C168.874 22.044 169.957 22.2564 170.883 22.6811C171.814 23.1058 172.538 23.6966 173.056 24.4535C173.573 25.2103 173.84 26.087 173.856 27.0835H170.467Z" fill="black"/>
<path d="M24.9201 -1.0567e-06L0 9.27211L3.93778 43.7918L24.9465 56L46.0635 43.6264L50 9.10804L24.9201 -1.0567e-06Z" fill="#B3B3B3"/>
<path d="M47.5146 11.103L24.8618 2.93592V53.0833L43.8459 41.9752L47.5146 11.103Z" fill="#AF2B2D"/>
<path d="M2.79639 11.2505L6.17072 42.1226L24.8617 53.0833V2.93494L2.79639 11.2505V11.2505Z" fill="#DF2E31"/>
<path d="M30.1126 27.8783L24.9031 16.3764L20.3171 27.8783H30.1126V27.8783ZM32.0988 32.7146H18.2898L15.2005 40.8842L9.45404 40.9966L24.862 4.75683L40.807 40.9966H35.4809L32.0988 32.7146V32.7146Z" fill="#F2F2F2"/>
<path d="M24.8618 4.7569L24.903 16.3765L30.107 27.8872H24.8736L24.8618 32.7072L32.0984 32.7147L35.4807 40.998L40.9791 41.1058L24.8618 4.7569Z" fill="#B3B3B3"/>
</svg>
