<svg width="141" height="52" viewBox="0 0 141 52" fill="none" xmlns="http://www.w3.org/2000/svg">
<path d="M52.3974 3.24448L32 33.2692C32.9188 35.9988 35.6385 42.0037 39.1667 44.1873C42.6949 46.371 46.8846 43.6414 48.5385 42.0037C51.4786 38.0004 58.241 28.3561 61.7692 21.8052C65.2974 15.2544 72.0598 18.3478 75 20.7134C72.2436 16.3462 65.7385 6.51991 61.7692 2.15267C57.8 -2.21457 53.8675 1.06086 52.3974 3.24448Z" fill="url(#paint0_linear_39_9)"/>
<path d="M32.2174 2.71656C28.0725 0.543743 23.3623 3.80296 22.0435 5.97578L11.0217 24.9879L0 44H0.220788H10.7391C19.3304 44 21.4783 44 24.8696 38.568L39 11.951C37.3043 9.7782 37.1913 5.32393 32.2174 2.71656Z" fill="url(#paint1_linear_39_9)"/>
<path d="M25.321 19.9782C22.7136 15.6387 15.8539 19.1919 13.5 21C15.1296 17.5646 19.4587 10.0679 22 5.5C24.716 0.618057 34.0123 -0.0920277 36.7284 6.41723C38.0338 9.54578 40.893 15.0962 41.6173 17.8084C43.7901 22.1479 44.9852 26.4874 47.5926 28.6572C50.2 30.827 57.5514 27.5849 59 26.5L54.5 34C52.5082 37.2546 49 43.5 43.5 45C39.7035 46.0354 37.0905 43.4041 36.7284 42.5C32.3827 38.7029 27.9284 24.3177 25.321 19.9782Z" fill="url(#paint2_linear_39_9)"/>
<path d="M70.64 34.3116C71.0693 34.3116 71.4893 34.2743 71.9 34.1996C72.3293 34.1063 72.6373 34.0036 72.824 33.8916V31.2036L70.472 31.4276C69.8373 31.465 69.3333 31.5956 68.96 31.8196C68.5867 32.0436 68.4 32.3796 68.4 32.8276C68.4 33.2756 68.5773 33.6396 68.932 33.9196C69.2867 34.181 69.856 34.3116 70.64 34.3116ZM70.472 23.1116C72.4133 23.1116 73.9627 23.5223 75.12 24.3436C76.2773 25.1463 76.856 26.397 76.856 28.0956V34.4516C76.856 34.9183 76.7347 35.301 76.492 35.5996C76.2493 35.8796 75.9413 36.1223 75.568 36.3276C75.008 36.6636 74.308 36.925 73.468 37.1116C72.6467 37.317 71.704 37.4196 70.64 37.4196C68.736 37.4196 67.2147 37.0463 66.076 36.2996C64.956 35.553 64.396 34.4423 64.396 32.9676C64.396 31.6983 64.788 30.7276 65.572 30.0556C66.356 29.365 67.5227 28.945 69.072 28.7956L72.796 28.4036V28.0676C72.796 27.433 72.544 26.9756 72.04 26.6956C71.5547 26.4156 70.8547 26.2756 69.94 26.2756C69.2307 26.2756 68.5307 26.3596 67.84 26.5276C67.168 26.6956 66.5613 26.8916 66.02 27.1156C65.796 26.9663 65.6 26.7423 65.432 26.4436C65.2827 26.1263 65.208 25.7996 65.208 25.4636C65.208 24.6796 65.6373 24.1103 66.496 23.7556C67.0373 23.5316 67.6627 23.373 68.372 23.2796C69.1 23.1676 69.8 23.1116 70.472 23.1116ZM84.1977 27.1436V30.6436H80.0537V26.6396C80.0537 26.117 80.175 25.6783 80.4177 25.3236C80.679 24.9503 81.0337 24.6236 81.4817 24.3436C82.0977 23.9703 82.835 23.681 83.6937 23.4756C84.571 23.2516 85.4857 23.1396 86.4377 23.1396C88.3417 23.1396 89.2937 23.7743 89.2937 25.0436C89.2937 25.3423 89.247 25.6223 89.1537 25.8836C89.079 26.145 88.9857 26.369 88.8737 26.5556C88.687 26.5183 88.4537 26.4903 88.1737 26.4716C87.9124 26.4343 87.623 26.4156 87.3057 26.4156C86.7457 26.4156 86.1857 26.481 85.6257 26.6116C85.0657 26.7423 84.5897 26.9196 84.1977 27.1436ZM80.0537 29.5796L84.1977 29.6636V36.9436C84.011 36.9996 83.7497 37.0463 83.4137 37.0836C83.0777 37.1396 82.7137 37.1676 82.3217 37.1676C81.5377 37.1676 80.959 37.0276 80.5857 36.7476C80.231 36.4676 80.0537 35.9636 80.0537 35.2356V29.5796ZM104.282 31.2596H100.11V28.7676C100.11 27.909 99.886 27.3023 99.438 26.9476C99.0087 26.5743 98.458 26.3876 97.786 26.3876C97.1887 26.3876 96.6473 26.4996 96.162 26.7236C95.6953 26.9476 95.294 27.1996 94.958 27.4796L94.846 24.1196C95.2753 23.877 95.8073 23.653 96.442 23.4476C97.0767 23.2236 97.7767 23.1116 98.542 23.1116C100.315 23.1116 101.715 23.569 102.742 24.4836C103.769 25.3796 104.282 26.733 104.282 28.5436V31.2596ZM91.43 29.5796H95.574V36.9436C95.3873 36.9996 95.126 37.0463 94.79 37.0836C94.454 37.1396 94.09 37.1676 93.698 37.1676C92.914 37.1676 92.3353 37.0276 91.962 36.7476C91.6073 36.4676 91.43 35.9636 91.43 35.2356V29.5796ZM100.11 29.5796H104.282V36.9436C104.095 36.9996 103.834 37.0463 103.498 37.0836C103.162 37.1396 102.798 37.1676 102.406 37.1676C101.603 37.1676 101.015 37.0276 100.642 36.7476C100.287 36.4676 100.11 35.9636 100.11 35.2356V29.5796ZM95.574 31.7356H91.43V18.7436C91.598 18.6876 91.85 18.6316 92.186 18.5756C92.522 18.5196 92.886 18.4916 93.278 18.4916C94.0807 18.4916 94.6593 18.6316 95.014 18.9116C95.3873 19.1916 95.574 19.705 95.574 20.4516V31.7356ZM113.05 34.3116C113.479 34.3116 113.899 34.2743 114.31 34.1996C114.739 34.1063 115.047 34.0036 115.234 33.8916V31.2036L112.882 31.4276C112.247 31.465 111.743 31.5956 111.37 31.8196C110.997 32.0436 110.81 32.3796 110.81 32.8276C110.81 33.2756 110.987 33.6396 111.342 33.9196C111.697 34.181 112.266 34.3116 113.05 34.3116ZM112.882 23.1116C114.823 23.1116 116.373 23.5223 117.53 24.3436C118.687 25.1463 119.266 26.397 119.266 28.0956V34.4516C119.266 34.9183 119.145 35.301 118.902 35.5996C118.659 35.8796 118.351 36.1223 117.978 36.3276C117.418 36.6636 116.718 36.925 115.878 37.1116C115.057 37.317 114.114 37.4196 113.05 37.4196C111.146 37.4196 109.625 37.0463 108.486 36.2996C107.366 35.553 106.806 34.4423 106.806 32.9676C106.806 31.6983 107.198 30.7276 107.982 30.0556C108.766 29.365 109.933 28.945 111.482 28.7956L115.206 28.4036V28.0676C115.206 27.433 114.954 26.9756 114.45 26.6956C113.965 26.4156 113.265 26.2756 112.35 26.2756C111.641 26.2756 110.941 26.3596 110.25 26.5276C109.578 26.6956 108.971 26.8916 108.43 27.1156C108.206 26.9663 108.01 26.7423 107.842 26.4436C107.693 26.1263 107.618 25.7996 107.618 25.4636C107.618 24.6796 108.047 24.1103 108.906 23.7556C109.447 23.5316 110.073 23.373 110.782 23.2796C111.51 23.1676 112.21 23.1116 112.882 23.1116ZM135.316 28.2636V30.8956H131.144V28.4036C131.144 27.713 130.939 27.209 130.528 26.8916C130.136 26.5556 129.613 26.3876 128.96 26.3876C128.493 26.3876 128.064 26.453 127.672 26.5836C127.28 26.6956 126.925 26.8356 126.608 27.0036V30.8956H122.464V26.5276C122.464 26.061 122.557 25.6783 122.744 25.3796C122.949 25.0623 123.239 24.7823 123.612 24.5396C124.209 24.129 124.975 23.793 125.908 23.5316C126.841 23.2516 127.868 23.1116 128.988 23.1116C131.004 23.1116 132.563 23.5596 133.664 24.4556C134.765 25.333 135.316 26.6023 135.316 28.2636ZM122.464 29.6076H126.608V36.9436C126.421 36.9996 126.16 37.0463 125.824 37.0836C125.488 37.1396 125.124 37.1676 124.732 37.1676C123.948 37.1676 123.369 37.0276 122.996 36.7476C122.641 36.4676 122.464 35.9636 122.464 35.2356V29.6076ZM131.144 29.6076H135.316V36.9436C135.129 36.9996 134.868 37.0463 134.532 37.0836C134.196 37.1396 133.832 37.1676 133.44 37.1676C132.656 37.1676 132.077 37.0276 131.704 36.7476C131.331 36.4676 131.144 35.9636 131.144 35.2356V29.6076Z" fill="#39145B"/>
<path d="M67.156 50.096C66.38 50.096 65.76 49.864 65.296 49.4C64.832 48.936 64.6 48.312 64.6 47.528H65.716C65.716 48 65.848 48.376 66.112 48.656C66.384 48.936 66.74 49.076 67.18 49.076H68.512C68.952 49.076 69.304 48.984 69.568 48.8C69.832 48.608 69.964 48.356 69.964 48.044V47.396C69.964 47.148 69.868 46.94 69.676 46.772C69.492 46.604 69.228 46.492 68.884 46.436L66.7 46.076C66.06 45.972 65.564 45.752 65.212 45.416C64.868 45.08 64.696 44.66 64.696 44.156V43.496C64.696 42.896 64.924 42.416 65.38 42.056C65.844 41.688 66.452 41.504 67.204 41.504H68.56C69.032 41.504 69.448 41.604 69.808 41.804C70.176 41.996 70.46 42.272 70.66 42.632C70.86 42.984 70.96 43.392 70.96 43.856H69.832C69.832 43.456 69.716 43.136 69.484 42.896C69.252 42.648 68.944 42.524 68.56 42.524H67.204C66.796 42.524 66.464 42.616 66.208 42.8C65.96 42.976 65.836 43.22 65.836 43.532V44.072C65.836 44.328 65.924 44.54 66.1 44.708C66.284 44.876 66.544 44.992 66.88 45.056L69.04 45.428C69.704 45.54 70.212 45.76 70.564 46.088C70.924 46.408 71.104 46.812 71.104 47.3V48.08C71.104 48.688 70.868 49.176 70.396 49.544C69.932 49.912 69.312 50.096 68.536 50.096H67.156ZM77.4606 50.096C76.7566 50.096 76.1886 49.884 75.7566 49.46C75.3326 49.036 75.1206 48.48 75.1206 47.792V46.232C75.1206 45.536 75.3366 44.976 75.7686 44.552C76.2006 44.128 76.7726 43.916 77.4846 43.916H78.4926C79.2046 43.916 79.7766 44.128 80.2086 44.552C80.6406 44.976 80.8566 45.536 80.8566 46.232V47.792C80.8566 48.48 80.6366 49.036 80.1966 49.46C79.7646 49.884 79.1926 50.096 78.4806 50.096H77.4606ZM78.4686 49.112C78.8526 49.112 79.1606 48.988 79.3926 48.74C79.6246 48.492 79.7406 48.16 79.7406 47.744V46.268C79.7406 45.852 79.6246 45.52 79.3926 45.272C79.1686 45.024 78.8686 44.9 78.4926 44.9H77.4846C77.1086 44.9 76.8046 45.024 76.5726 45.272C76.3486 45.52 76.2366 45.852 76.2366 46.268V47.744C76.2366 48.16 76.3486 48.492 76.5726 48.74C76.7966 48.988 77.0966 49.112 77.4726 49.112H78.4686ZM86.9661 50C86.3341 50 85.8781 49.868 85.5981 49.604C85.3181 49.332 85.1781 48.896 85.1781 48.296V41.6H86.2941V48.26C86.2941 48.532 86.3501 48.728 86.4621 48.848C86.5741 48.968 86.7581 49.028 87.0141 49.028H87.4941V50H86.9661ZM93.2582 50.096C92.6742 50.096 92.2022 49.9 91.8422 49.508C91.4902 49.116 91.3142 48.6 91.3142 47.96V44.012H92.4302V47.984C92.4302 48.32 92.5142 48.592 92.6822 48.8C92.8502 49.008 93.0702 49.112 93.3422 49.112H94.0622C94.3982 49.112 94.7062 48.976 94.9862 48.704C95.2662 48.432 95.4502 48.088 95.5382 47.672V44.012H96.6542V50H95.5982V49.136C95.4062 49.416 95.1662 49.648 94.8782 49.832C94.5902 50.008 94.3062 50.096 94.0262 50.096H93.2582ZM103.651 50C102.995 50 102.519 49.856 102.223 49.568C101.935 49.28 101.791 48.816 101.791 48.176V44.984H100.735V44.012H101.803V42.2H102.907V44.012H104.467V44.984H102.907V48.152C102.907 48.464 102.967 48.688 103.087 48.824C103.215 48.96 103.419 49.028 103.699 49.028H104.467V50H103.651ZM109.563 43.22C109.331 43.22 109.143 43.152 108.999 43.016C108.855 42.872 108.783 42.688 108.783 42.464C108.783 42.24 108.855 42.06 108.999 41.924C109.143 41.78 109.331 41.708 109.563 41.708C109.795 41.708 109.979 41.78 110.115 41.924C110.259 42.06 110.331 42.24 110.331 42.464C110.331 42.688 110.259 42.872 110.115 43.016C109.979 43.152 109.795 43.22 109.563 43.22ZM108.999 44.012H110.115V50H108.999V44.012ZM116.986 50.096C116.282 50.096 115.714 49.884 115.282 49.46C114.858 49.036 114.646 48.48 114.646 47.792V46.232C114.646 45.536 114.862 44.976 115.294 44.552C115.726 44.128 116.298 43.916 117.01 43.916H118.018C118.73 43.916 119.302 44.128 119.734 44.552C120.166 44.976 120.382 45.536 120.382 46.232V47.792C120.382 48.48 120.162 49.036 119.722 49.46C119.29 49.884 118.718 50.096 118.006 50.096H116.986ZM117.994 49.112C118.378 49.112 118.686 48.988 118.918 48.74C119.15 48.492 119.266 48.16 119.266 47.744V46.268C119.266 45.852 119.15 45.52 118.918 45.272C118.694 45.024 118.394 44.9 118.018 44.9H117.01C116.634 44.9 116.33 45.024 116.098 45.272C115.874 45.52 115.762 45.852 115.762 46.268V47.744C115.762 48.16 115.874 48.492 116.098 48.74C116.322 48.988 116.622 49.112 116.998 49.112H117.994ZM124.703 44.012H125.771V44.84C125.947 44.568 126.179 44.348 126.467 44.18C126.763 44.004 127.055 43.916 127.343 43.916H128.135C128.711 43.916 129.175 44.108 129.527 44.492C129.887 44.876 130.067 45.38 130.067 46.004V50H128.951V46.004C128.951 45.676 128.867 45.412 128.699 45.212C128.531 45.004 128.311 44.9 128.039 44.9H127.295C126.951 44.9 126.639 45.032 126.359 45.296C126.079 45.56 125.899 45.904 125.819 46.328V50H124.703V44.012ZM136.404 50.096C135.756 50.096 135.236 49.92 134.844 49.568C134.452 49.208 134.256 48.736 134.256 48.152H135.348C135.348 48.448 135.444 48.688 135.636 48.872C135.828 49.056 136.084 49.148 136.404 49.148H137.46C137.764 49.148 138.008 49.092 138.192 48.98C138.376 48.86 138.468 48.704 138.468 48.512V48.164C138.468 48.036 138.412 47.924 138.3 47.828C138.196 47.724 138.06 47.656 137.892 47.624L135.816 47.264C135.376 47.184 135.024 47.02 134.76 46.772C134.496 46.516 134.364 46.22 134.364 45.884V45.488C134.364 45.016 134.552 44.636 134.928 44.348C135.304 44.06 135.808 43.916 136.44 43.916H137.448C138.048 43.916 138.528 44.08 138.888 44.408C139.256 44.736 139.44 45.172 139.44 45.716H138.348C138.34 45.46 138.252 45.256 138.084 45.104C137.924 44.944 137.712 44.864 137.448 44.864H136.452C136.156 44.864 135.92 44.924 135.744 45.044C135.576 45.164 135.492 45.324 135.492 45.524V45.824C135.492 45.952 135.548 46.064 135.66 46.16C135.772 46.256 135.916 46.324 136.092 46.364L138.192 46.736C138.608 46.808 138.944 46.968 139.2 47.216C139.464 47.464 139.596 47.752 139.596 48.08V48.548C139.596 49.012 139.4 49.388 139.008 49.676C138.616 49.956 138.1 50.096 137.46 50.096H136.404Z" fill="#39145B"/>
<defs>
<linearGradient id="paint0_linear_39_9" x1="59.0128" y1="1.60676" x2="45.9667" y2="22.4666" gradientUnits="userSpaceOnUse">
<stop offset="0.0872635" stop-color="#EE5325"/>
<stop offset="0.527723" stop-color="#CA1C1E"/>
<stop offset="1" stop-color="#A70C1C"/>
</linearGradient>
<linearGradient id="paint1_linear_39_9" x1="27.1304" y1="17.9262" x2="9.00804" y2="48.9846" gradientUnits="userSpaceOnUse">
<stop stop-color="#540E15"/>
<stop offset="0.630208" stop-color="#F53532"/>
<stop offset="0.927773" stop-color="#FC8747"/>
</linearGradient>
<linearGradient id="paint2_linear_39_9" x1="29.6667" y1="9.67186" x2="51.3523" y2="42.2466" gradientUnits="userSpaceOnUse">
<stop stop-color="#C31C2E"/>
<stop offset="0.342308" stop-color="#F91B1C"/>
<stop offset="1" stop-color="#EF562A"/>
</linearGradient>
</defs>
</svg>
