<svg width="719" height="382" viewBox="0 0 719 382" fill="none" xmlns="http://www.w3.org/2000/svg">
<path d="M1.99861 370.116L42.9701 381L588.091 381H675.031C680.527 381 715.003 369.643 719 368.223C718.6 363.68 711.838 362.86 708.507 363.018H384.233H151.395H1.99861C0.399722 363.018 0 363.649 0 363.964V368.223C0 370.116 1.33241 370.274 1.99861 370.116Z" fill="white"/>
<path d="M717 370H3C10.0049 372.301 25.916 377.494 33.5214 379.861C41.1267 382.228 44.3623 382.162 45.0294 381.833H677.973C682.776 381.833 705.992 373.944 717 370Z" fill="url(#paint0_linear_6_2)"/>
<path d="M88.5 363H93H625.5C631.9 362.6 633.5 357.167 633.5 354.5V19C633.5 4.2 621.167 0.833331 615 0.999998H608H103.5C87.9 0.999998 84.3333 12.3333 84.5 18V357C84.5 361.4 87.1667 362.833 88.5 363Z" fill="white"/>
<path d="M94 362.5H98.5C271.667 362.333 619.1 362 623.5 362C627.9 361.2 629.333 356 629.5 353.5V17.5C628.7 6.3 614.833 4.16667 608 4.5H104C91.6 5.7 88.8333 15.6667 89 20.5V265V355.5C89 361.1 92.3333 362.5 94 362.5Z" fill="url(#paint1_linear_6_2)"/>
<path d="M395.5 362.5H321.5C324.7 366.1 328.167 366.667 329.5 366.5H388C390.4 366.5 394 363.833 395.5 362.5Z" fill="#D9D9D9"/>
<path d="M611.5 28H109V345.5H611.5V28Z" fill="white"/>
<defs>
<linearGradient id="paint0_linear_6_2" x1="360" y1="370" x2="360" y2="382" gradientUnits="userSpaceOnUse">
<stop stop-color="#D0D0D0"/>
<stop offset="1" stop-color="#D9D9D9"/>
</linearGradient>
<linearGradient id="paint1_linear_6_2" x1="384" y1="333" x2="572" y2="60" gradientUnits="userSpaceOnUse">
<stop stop-color="#F2F2F2"/>
<stop offset="0.412397" stop-color="#F7F7F7"/>
<stop offset="0.979052" stop-color="#FEFEFE"/>
</linearGradient>
</defs>
</svg>
