<svg width="147" height="54" viewBox="0 0 147 54" fill="none" xmlns="http://www.w3.org/2000/svg">
<path d="M56.8205 3.53287L35 36.2265C35.9829 39.1987 38.8923 45.7374 42.6667 48.1151C46.441 50.4928 50.9231 47.5207 52.6923 45.7374C55.8376 41.3782 63.0718 30.8766 66.8462 23.7435C70.6205 16.6103 77.8547 19.9788 81 22.5546C78.0513 17.7992 71.0923 7.09945 66.8462 2.34402C62.6 -2.41142 58.3932 1.15516 56.8205 3.53287Z" fill="url(#paint0_linear_35_7)"/>
<path d="M33.8696 2.7848C29.5121 0.405051 24.5604 3.97467 23.1739 6.35442L11.587 27.1772L0 48H0.232111H11.2899C20.3217 48 22.5797 48 26.1449 42.0506L41 12.8987C39.2174 10.519 39.0985 5.6405 33.8696 2.7848Z" fill="url(#paint1_linear_35_7)"/>
<path d="M26.2593 21.7035C23.4148 16.9695 17.5679 19.731 15 21.7035C16.7778 17.9557 21.7091 9.52584 24.4815 4.5427C27.4444 -0.783052 35.7407 -0.191301 38.7037 6.90971C40.1278 10.3227 43.2469 16.3777 44.037 19.3365C46.4074 24.0705 47.7111 28.8045 50.5556 31.1715C53.4 33.5385 61.4198 31.1715 63 29.988L58.8519 37.6808C56.679 41.2313 51.2667 48.4506 47 48.924C42.7333 49.3974 40.8765 47.5433 40.4815 46.557C35.7407 42.4148 29.1037 26.4375 26.2593 21.7035Z" fill="url(#paint2_linear_35_7)"/>
<path d="M76.64 36.3116C77.0693 36.3116 77.4893 36.2743 77.9 36.1996C78.3293 36.1063 78.6373 36.0036 78.824 35.8916V33.2036L76.472 33.4276C75.8373 33.465 75.3333 33.5956 74.96 33.8196C74.5867 34.0436 74.4 34.3796 74.4 34.8276C74.4 35.2756 74.5773 35.6396 74.932 35.9196C75.2867 36.181 75.856 36.3116 76.64 36.3116ZM76.472 25.1116C78.4133 25.1116 79.9627 25.5223 81.12 26.3436C82.2773 27.1463 82.856 28.397 82.856 30.0956V36.4516C82.856 36.9183 82.7347 37.301 82.492 37.5996C82.2493 37.8796 81.9413 38.1223 81.568 38.3276C81.008 38.6636 80.308 38.925 79.468 39.1116C78.6467 39.317 77.704 39.4196 76.64 39.4196C74.736 39.4196 73.2147 39.0463 72.076 38.2996C70.956 37.553 70.396 36.4423 70.396 34.9676C70.396 33.6983 70.788 32.7276 71.572 32.0556C72.356 31.365 73.5227 30.945 75.072 30.7956L78.796 30.4036V30.0676C78.796 29.433 78.544 28.9756 78.04 28.6956C77.5547 28.4156 76.8547 28.2756 75.94 28.2756C75.2307 28.2756 74.5307 28.3596 73.84 28.5276C73.168 28.6956 72.5613 28.8916 72.02 29.1156C71.796 28.9663 71.6 28.7423 71.432 28.4436C71.2827 28.1263 71.208 27.7996 71.208 27.4636C71.208 26.6796 71.6373 26.1103 72.496 25.7556C73.0373 25.5316 73.6627 25.373 74.372 25.2796C75.1 25.1676 75.8 25.1116 76.472 25.1116ZM90.1977 29.1436V32.6436H86.0537V28.6396C86.0537 28.117 86.175 27.6783 86.4177 27.3236C86.679 26.9503 87.0337 26.6236 87.4817 26.3436C88.0977 25.9703 88.835 25.681 89.6937 25.4756C90.571 25.2516 91.4857 25.1396 92.4377 25.1396C94.3417 25.1396 95.2937 25.7743 95.2937 27.0436C95.2937 27.3423 95.247 27.6223 95.1537 27.8836C95.079 28.145 94.9857 28.369 94.8737 28.5556C94.687 28.5183 94.4537 28.4903 94.1737 28.4716C93.9124 28.4343 93.623 28.4156 93.3057 28.4156C92.7457 28.4156 92.1857 28.481 91.6257 28.6116C91.0657 28.7423 90.5897 28.9196 90.1977 29.1436ZM86.0537 31.5796L90.1977 31.6636V38.9436C90.011 38.9996 89.7497 39.0463 89.4137 39.0836C89.0777 39.1396 88.7137 39.1676 88.3217 39.1676C87.5377 39.1676 86.959 39.0276 86.5857 38.7476C86.231 38.4676 86.0537 37.9636 86.0537 37.2356V31.5796ZM110.282 33.2596H106.11V30.7676C106.11 29.909 105.886 29.3023 105.438 28.9476C105.009 28.5743 104.458 28.3876 103.786 28.3876C103.189 28.3876 102.647 28.4996 102.162 28.7236C101.695 28.9476 101.294 29.1996 100.958 29.4796L100.846 26.1196C101.275 25.877 101.807 25.653 102.442 25.4476C103.077 25.2236 103.777 25.1116 104.542 25.1116C106.315 25.1116 107.715 25.569 108.742 26.4836C109.769 27.3796 110.282 28.733 110.282 30.5436V33.2596ZM97.43 31.5796H101.574V38.9436C101.387 38.9996 101.126 39.0463 100.79 39.0836C100.454 39.1396 100.09 39.1676 99.698 39.1676C98.914 39.1676 98.3353 39.0276 97.962 38.7476C97.6073 38.4676 97.43 37.9636 97.43 37.2356V31.5796ZM106.11 31.5796H110.282V38.9436C110.095 38.9996 109.834 39.0463 109.498 39.0836C109.162 39.1396 108.798 39.1676 108.406 39.1676C107.603 39.1676 107.015 39.0276 106.642 38.7476C106.287 38.4676 106.11 37.9636 106.11 37.2356V31.5796ZM101.574 33.7356H97.43V20.7436C97.598 20.6876 97.85 20.6316 98.186 20.5756C98.522 20.5196 98.886 20.4916 99.278 20.4916C100.081 20.4916 100.659 20.6316 101.014 20.9116C101.387 21.1916 101.574 21.705 101.574 22.4516V33.7356ZM119.05 36.3116C119.479 36.3116 119.899 36.2743 120.31 36.1996C120.739 36.1063 121.047 36.0036 121.234 35.8916V33.2036L118.882 33.4276C118.247 33.465 117.743 33.5956 117.37 33.8196C116.997 34.0436 116.81 34.3796 116.81 34.8276C116.81 35.2756 116.987 35.6396 117.342 35.9196C117.697 36.181 118.266 36.3116 119.05 36.3116ZM118.882 25.1116C120.823 25.1116 122.373 25.5223 123.53 26.3436C124.687 27.1463 125.266 28.397 125.266 30.0956V36.4516C125.266 36.9183 125.145 37.301 124.902 37.5996C124.659 37.8796 124.351 38.1223 123.978 38.3276C123.418 38.6636 122.718 38.925 121.878 39.1116C121.057 39.317 120.114 39.4196 119.05 39.4196C117.146 39.4196 115.625 39.0463 114.486 38.2996C113.366 37.553 112.806 36.4423 112.806 34.9676C112.806 33.6983 113.198 32.7276 113.982 32.0556C114.766 31.365 115.933 30.945 117.482 30.7956L121.206 30.4036V30.0676C121.206 29.433 120.954 28.9756 120.45 28.6956C119.965 28.4156 119.265 28.2756 118.35 28.2756C117.641 28.2756 116.941 28.3596 116.25 28.5276C115.578 28.6956 114.971 28.8916 114.43 29.1156C114.206 28.9663 114.01 28.7423 113.842 28.4436C113.693 28.1263 113.618 27.7996 113.618 27.4636C113.618 26.6796 114.047 26.1103 114.906 25.7556C115.447 25.5316 116.073 25.373 116.782 25.2796C117.51 25.1676 118.21 25.1116 118.882 25.1116ZM141.316 30.2636V32.8956H137.144V30.4036C137.144 29.713 136.939 29.209 136.528 28.8916C136.136 28.5556 135.613 28.3876 134.96 28.3876C134.493 28.3876 134.064 28.453 133.672 28.5836C133.28 28.6956 132.925 28.8356 132.608 29.0036V32.8956H128.464V28.5276C128.464 28.061 128.557 27.6783 128.744 27.3796C128.949 27.0623 129.239 26.7823 129.612 26.5396C130.209 26.129 130.975 25.793 131.908 25.5316C132.841 25.2516 133.868 25.1116 134.988 25.1116C137.004 25.1116 138.563 25.5596 139.664 26.4556C140.765 27.333 141.316 28.6023 141.316 30.2636ZM128.464 31.6076H132.608V38.9436C132.421 38.9996 132.16 39.0463 131.824 39.0836C131.488 39.1396 131.124 39.1676 130.732 39.1676C129.948 39.1676 129.369 39.0276 128.996 38.7476C128.641 38.4676 128.464 37.9636 128.464 37.2356V31.6076ZM137.144 31.6076H141.316V38.9436C141.129 38.9996 140.868 39.0463 140.532 39.0836C140.196 39.1396 139.832 39.1676 139.44 39.1676C138.656 39.1676 138.077 39.0276 137.704 38.7476C137.331 38.4676 137.144 37.9636 137.144 37.2356V31.6076Z" fill="#39145B"/>
<path d="M72.276 51.12C71.692 51.12 71.152 50.996 70.656 50.748C70.168 50.5 69.792 50.148 69.528 49.692L70.344 49.104C70.52 49.472 70.776 49.76 71.112 49.968C71.456 50.176 71.868 50.28 72.348 50.28C72.772 50.28 73.104 50.2 73.344 50.04C73.584 49.872 73.704 49.656 73.704 49.392C73.704 49.224 73.648 49.072 73.536 48.936C73.432 48.792 73.228 48.688 72.924 48.624L71.484 48.324C70.9 48.204 70.48 48.004 70.224 47.724C69.976 47.444 69.852 47.096 69.852 46.68C69.852 46.352 69.944 46.052 70.128 45.78C70.32 45.508 70.588 45.292 70.932 45.132C71.284 44.964 71.696 44.88 72.168 44.88C72.76 44.88 73.26 44.996 73.668 45.228C74.076 45.46 74.38 45.788 74.58 46.212L73.776 46.74C73.64 46.388 73.42 46.132 73.116 45.972C72.812 45.804 72.496 45.72 72.168 45.72C71.88 45.72 71.632 45.76 71.424 45.84C71.224 45.92 71.068 46.032 70.956 46.176C70.852 46.312 70.8 46.468 70.8 46.644C70.8 46.82 70.86 46.984 70.98 47.136C71.1 47.28 71.324 47.384 71.652 47.448L73.152 47.76C73.712 47.872 74.104 48.056 74.328 48.312C74.552 48.568 74.664 48.88 74.664 49.248C74.664 49.624 74.564 49.956 74.364 50.244C74.164 50.524 73.884 50.74 73.524 50.892C73.164 51.044 72.748 51.12 72.276 51.12ZM81.8681 44.88C82.4361 44.88 82.9361 45.004 83.3681 45.252C83.8081 45.5 84.1521 45.86 84.4001 46.332C84.6481 46.796 84.7721 47.352 84.7721 48C84.7721 48.648 84.6481 49.208 84.4001 49.68C84.1521 50.144 83.8081 50.5 83.3681 50.748C82.9361 50.996 82.4361 51.12 81.8681 51.12C81.3081 51.12 80.8081 50.996 80.3681 50.748C79.9281 50.5 79.5841 50.144 79.3361 49.68C79.0881 49.208 78.9641 48.648 78.9641 48C78.9641 47.352 79.0881 46.796 79.3361 46.332C79.5841 45.86 79.9281 45.5 80.3681 45.252C80.8081 45.004 81.3081 44.88 81.8681 44.88ZM81.8681 45.708C81.4601 45.708 81.1121 45.8 80.8241 45.984C80.5361 46.168 80.3121 46.432 80.1521 46.776C80.0001 47.112 79.9241 47.52 79.9241 48C79.9241 48.472 80.0001 48.88 80.1521 49.224C80.3121 49.568 80.5361 49.832 80.8241 50.016C81.1121 50.2 81.4601 50.292 81.8681 50.292C82.2761 50.292 82.6241 50.2 82.9121 50.016C83.2001 49.832 83.4201 49.568 83.5721 49.224C83.7321 48.88 83.8121 48.472 83.8121 48C83.8121 47.52 83.7321 47.112 83.5721 46.776C83.4201 46.432 83.2001 46.168 82.9121 45.984C82.6241 45.8 82.2761 45.708 81.8681 45.708ZM90.4314 42.24V49.476C90.4314 49.78 90.4874 49.992 90.5994 50.112C90.7114 50.224 90.8914 50.28 91.1394 50.28C91.2994 50.28 91.4314 50.268 91.5354 50.244C91.6394 50.22 91.7794 50.176 91.9554 50.112L91.7994 50.952C91.6714 51.008 91.5314 51.048 91.3794 51.072C91.2274 51.104 91.0714 51.12 90.9114 51.12C90.4234 51.12 90.0594 50.988 89.8194 50.724C89.5874 50.46 89.4714 50.056 89.4714 49.512V42.24H90.4314ZM98.2994 51.12C97.9154 51.12 97.5514 51.048 97.2074 50.904C96.8714 50.76 96.5954 50.528 96.3794 50.208C96.1714 49.88 96.0674 49.456 96.0674 48.936V45H97.0274V48.684C97.0274 49.292 97.1594 49.712 97.4234 49.944C97.6874 50.168 98.0594 50.28 98.5394 50.28C98.7634 50.28 98.9834 50.244 99.1994 50.172C99.4154 50.092 99.6074 49.972 99.7754 49.812C99.9514 49.644 100.087 49.432 100.183 49.176C100.287 48.92 100.339 48.616 100.339 48.264V45H101.299V51H100.459L100.399 50.088C100.191 50.448 99.9074 50.712 99.5474 50.88C99.1954 51.04 98.7794 51.12 98.2994 51.12ZM107.89 43.296V49.344C107.89 49.64 107.974 49.86 108.142 50.004C108.31 50.148 108.526 50.22 108.79 50.22C109.022 50.22 109.222 50.18 109.39 50.1C109.558 50.02 109.71 49.912 109.846 49.776L110.182 50.58C109.998 50.748 109.778 50.88 109.522 50.976C109.274 51.072 108.986 51.12 108.658 51.12C108.354 51.12 108.07 51.068 107.806 50.964C107.542 50.852 107.33 50.68 107.17 50.448C107.018 50.208 106.938 49.896 106.93 49.512V43.56L107.89 43.296ZM110.074 45V45.828H105.73V45H110.074ZM114.921 43.848C114.705 43.848 114.529 43.784 114.393 43.656C114.265 43.52 114.201 43.344 114.201 43.128C114.201 42.912 114.265 42.74 114.393 42.612C114.529 42.476 114.705 42.408 114.921 42.408C115.137 42.408 115.309 42.476 115.437 42.612C115.573 42.74 115.641 42.912 115.641 43.128C115.641 43.344 115.573 43.52 115.437 43.656C115.309 43.784 115.137 43.848 114.921 43.848ZM115.401 45V51H114.441V45H115.401ZM123.052 44.88C123.62 44.88 124.12 45.004 124.552 45.252C124.992 45.5 125.336 45.86 125.584 46.332C125.832 46.796 125.957 47.352 125.957 48C125.957 48.648 125.832 49.208 125.584 49.68C125.336 50.144 124.992 50.5 124.552 50.748C124.12 50.996 123.62 51.12 123.052 51.12C122.492 51.12 121.992 50.996 121.552 50.748C121.112 50.5 120.768 50.144 120.52 49.68C120.272 49.208 120.148 48.648 120.148 48C120.148 47.352 120.272 46.796 120.52 46.332C120.768 45.86 121.112 45.5 121.552 45.252C121.992 45.004 122.492 44.88 123.052 44.88ZM123.052 45.708C122.644 45.708 122.296 45.8 122.008 45.984C121.72 46.168 121.496 46.432 121.336 46.776C121.184 47.112 121.108 47.52 121.108 48C121.108 48.472 121.184 48.88 121.336 49.224C121.496 49.568 121.72 49.832 122.008 50.016C122.296 50.2 122.644 50.292 123.052 50.292C123.46 50.292 123.808 50.2 124.096 50.016C124.384 49.832 124.604 49.568 124.756 49.224C124.916 48.88 124.996 48.472 124.996 48C124.996 47.52 124.916 47.112 124.756 46.776C124.604 46.432 124.384 46.168 124.096 45.984C123.808 45.8 123.46 45.708 123.052 45.708ZM130.704 51V45H131.544L131.628 46.344L131.472 46.212C131.6 45.892 131.772 45.636 131.988 45.444C132.204 45.244 132.452 45.1 132.732 45.012C133.02 44.924 133.316 44.88 133.62 44.88C134.052 44.88 134.444 44.964 134.796 45.132C135.148 45.292 135.428 45.54 135.636 45.876C135.852 46.212 135.96 46.64 135.96 47.16V51H135V47.496C135 46.832 134.856 46.372 134.568 46.116C134.288 45.852 133.94 45.72 133.524 45.72C133.236 45.72 132.948 45.788 132.66 45.924C132.372 46.06 132.132 46.28 131.94 46.584C131.756 46.888 131.664 47.296 131.664 47.808V51H130.704ZM143.234 51.12C142.65 51.12 142.11 50.996 141.614 50.748C141.126 50.5 140.75 50.148 140.486 49.692L141.302 49.104C141.478 49.472 141.734 49.76 142.07 49.968C142.414 50.176 142.826 50.28 143.306 50.28C143.73 50.28 144.062 50.2 144.302 50.04C144.542 49.872 144.662 49.656 144.662 49.392C144.662 49.224 144.606 49.072 144.494 48.936C144.39 48.792 144.186 48.688 143.882 48.624L142.442 48.324C141.858 48.204 141.438 48.004 141.182 47.724C140.934 47.444 140.81 47.096 140.81 46.68C140.81 46.352 140.902 46.052 141.086 45.78C141.278 45.508 141.546 45.292 141.89 45.132C142.242 44.964 142.654 44.88 143.126 44.88C143.718 44.88 144.218 44.996 144.626 45.228C145.034 45.46 145.338 45.788 145.538 46.212L144.734 46.74C144.598 46.388 144.378 46.132 144.074 45.972C143.77 45.804 143.454 45.72 143.126 45.72C142.838 45.72 142.59 45.76 142.382 45.84C142.182 45.92 142.026 46.032 141.914 46.176C141.81 46.312 141.758 46.468 141.758 46.644C141.758 46.82 141.818 46.984 141.938 47.136C142.058 47.28 142.282 47.384 142.61 47.448L144.11 47.76C144.67 47.872 145.062 48.056 145.286 48.312C145.51 48.568 145.622 48.88 145.622 49.248C145.622 49.624 145.522 49.956 145.322 50.244C145.122 50.524 144.842 50.74 144.482 50.892C144.122 51.044 143.706 51.12 143.234 51.12Z" fill="#39145B"/>
<defs>
<linearGradient id="paint0_linear_35_7" x1="63.8974" y1="1.74958" x2="49.5829" y2="24.2356" gradientUnits="userSpaceOnUse">
<stop offset="0.0872635" stop-color="#EE5325"/>
<stop offset="0.527723" stop-color="#CA1C1E"/>
<stop offset="1" stop-color="#A70C1C"/>
</linearGradient>
<linearGradient id="paint1_linear_35_7" x1="28.5217" y1="19.443" x2="8.28238" y2="52.7373" gradientUnits="userSpaceOnUse">
<stop stop-color="#540E15"/>
<stop offset="0.630208" stop-color="#F53532"/>
<stop offset="0.927773" stop-color="#FC8747"/>
</linearGradient>
<linearGradient id="paint2_linear_35_7" x1="31" y1="10.4602" x2="54.6571" y2="45.9963" gradientUnits="userSpaceOnUse">
<stop stop-color="#C31C2E"/>
<stop offset="0.342308" stop-color="#F91B1C"/>
<stop offset="1" stop-color="#EF562A"/>
</linearGradient>
</defs>
</svg>
